# xmcd
#
# Track frame offsets: 
#        150
#        20192
#        40570
#        63105
#        82280
#        103515
#        120185
#        138897
#        155407
#        171015
#
# Disc length: 2526 seconds
#
# Revision: 1
# Processed by: cddbd v1.5.2PL0 Copyright (c) Steve Scherf et al.
# Submitted via: ExactAudioCopyFreeDBPlugin 1.0
#
DISCID=7509dc0a
DTITLE=Larry Graham - Just Be My Lady
DYEAR=1981
DGENRE=Soul
TTITLE0=Just Be My Lady
TTITLE1=Loving You Is Beautiful
TTITLE2=Guess Who
TTITLE3=Our Love Keeps Growing Strong
TTITLE4=Can't Nobody Take Your Place
TTITLE5=No Place Like Home
TTITLE6=Baby, You Are My Sunshine
TTITLE7=I Just Love You
TTITLE8=Feels Like Love
TTITLE9=Remember When
EXTD=
EXTT0=
EXTT1=
EXTT2=
EXTT3=
EXTT4=
EXTT5=
EXTT6=
EXTT7=
EXTT8=
EXTT9=
PLAYORDER=
